<svg enable-background="new 0 0 140 140" height="512" viewBox="0 0 140 140" width="512" xmlns="http://www.w3.org/2000/svg"><circle cx="70" cy="69.999" fill="#4abba4" r="64"/><path d="m120.2084198 61.7706757 13.5499878 13.5500488c-2.710022 32.8598633-30.210022 58.6799316-63.7600098 58.6799316-.9899902 0-1.9700317-.0300293-2.9500122-.0800781l-35.4599628-35.4699707c-.0200195-.0100098-.0300293-.0200195-.0400391-.0400391l-.0200195-.0100098c-.4699707-.5-.7699585-1.1699219-.7699585-1.9099121v-38.1499023c0-1.5102539 1.2299805-2.7402344 2.7500019-2.7402344h8.6300049l-7.1799927-7.1699219c-.0300293-.0300293-.0500488-.0498047-.0800171-.0800781v-.0097656c-.25-.2602539-.4000244-.6201172-.4000244-1.0102539 0-.829834.6700439-1.5 1.5-1.5h13.3099976v-2.4099121c0-.9699707.2900391-1.869873.7700195-2.6398926v-.0100098h.0100098c.8800049-1.380127 2.4199829-2.3100586 4.1699829-2.3100586h11.1500244c.5299683-1 1.5700073-1.6999512 2.789978-1.6999512h17.1500244c.8200073 0 1.5599976.3198242 2.1199951.8398438h.0100098l.0499878.0400391c.0299683.0300293.0599976.0600586.0899658.0900879l26.7600098 26.7600098 4.4500122-3.4101562c.5700073-.4399415 1.4000244-.0297852 1.4000244.6901855z" opacity=".1"/><path d="m62.5936317 61.1749611c-.828125 0-1.5-.671875-1.5-1.5v-10.1054688c0-.4091797-.3330078-.7412109-.7421875-.7412109h-24.3740234c-.828125 0-1.5-.671875-1.5-1.5s.671875-1.5 1.5-1.5h24.3740234c2.0634766 0 3.7421837 1.6787109 3.7421837 3.7412109v10.1054688c0 .828125-.6718712 1.5-1.4999962 1.5z" fill="#293b44"/><path d="m101.474724 68.355545h10.970347v12.634239h-10.970347z" fill="#293b44"/><path d="m118.807373 61.0842628-9.4671631 7.2713585v12.6341553l9.4671631 7.2712402c.5715332.4389648 1.3983154.0316162 1.3983154-.6890869v-25.7985801c.0000001-.7205811-.8267822-1.1280518-1.3983154-.689087z" fill="#304551"/><path d="m102.0360107 64.4198303h-9.2120361v20.5056152h9.2120361c.7128906 0 1.2907715-.5778809 1.2907715-1.2907715v-17.9240722c0-.7128906-.5778808-1.2907715-1.2907715-1.2907715z" fill="#304551"/><path d="m93.4788818 55.5985451h-59.9724083c-1.5151367 0-2.7434082 1.2282715-2.7434082 2.7434082v38.1525841c0 1.5151367 1.2282715 2.7434082 2.7434082 2.7434082h59.9724083c1.5151367 0 2.7434082-1.2282715 2.7434082-2.7434082v-38.1525841c0-1.5151367-1.2282714-2.7434082-2.7434082-2.7434082z" fill="#344d5b"/><path d="m54.2855072 58.5329018h-5v-15.1152344c0-2.7314453 2.2216797-4.953125 4.953125-4.953125h28.2294922v5h-28.2294922z" fill="#344d5b"/><path d="m85.3249359 36.7607422h-17.149414c-1.739624 0-3.1499023 1.4102783-3.1499023 3.1499023v2.2166748c0 1.739502 1.4102783 3.1499023 3.1499023 3.1499023h17.1494141c1.739624 0 3.1499023-1.4104004 3.1499023-3.1499023v-2.2166748c0-1.739624-1.4102784-3.1499023-3.1499024-3.1499023z" fill="#293b44"/><path d="m36.247444 60.902855h54.490471v27.539591h-54.490471z" fill="#293b44"/><path d="m41.9217567 91.309967c-1.1677246 0-2.1143799.9466553-2.1143799 2.1143799s.9466553 2.1143799 2.1143799 2.1143799 2.1142578-.9466553 2.1142578-2.1143799-.9465331-2.1143799-2.1142578-2.1143799z" fill="#de594e"/></svg>